<svg width="353" height="75" viewBox="0 0 353 75" fill="none" xmlns="http://www.w3.org/2000/svg">
<path d="M0 6.88075C0 3.08062 2.79673 8.28248e-06 6.38796 1.04037e-05C41.2037 3.09684e-05 260.121 0 260.121 0L307.152 19.2421C323.804 26.0549 323.695 49.6743 306.98 56.3327L263.685 73.58C261.33 74.5181 258.819 75 256.284 75H6.5025C2.91127 75 0 71.9194 0 68.1193V6.88075Z" fill="#E6C14A"/>
<path d="M196.75 37C196.75 50.6644 185.45 61.75 171.5 61.75C157.55 61.75 146.25 50.6644 146.25 37C146.25 23.3356 157.55 12.25 171.5 12.25C185.45 12.25 196.75 23.3356 196.75 37Z" fill="#D9D9D9" stroke="black" stroke-width="0.5"/>
<path d="M259.75 37C259.75 50.6644 248.45 61.75 234.5 61.75C220.55 61.75 209.25 50.6644 209.25 37C209.25 23.3356 220.55 12.25 234.5 12.25C248.45 12.25 259.75 23.3356 259.75 37Z" fill="#D9D9D9" stroke="black" stroke-width="0.5"/>
<path d="M133.75 37C133.75 50.6644 122.45 61.75 108.5 61.75C94.5501 61.75 83.25 50.6644 83.25 37C83.25 23.3356 94.5501 12.25 108.5 12.25C122.45 12.25 133.75 23.3356 133.75 37Z" fill="#D9D9D9" stroke="black" stroke-width="0.5"/>
<path d="M70.75 37C70.75 50.6644 59.4499 61.75 45.5 61.75C31.5501 61.75 20.25 50.6644 20.25 37C20.25 23.3356 31.5501 12.25 45.5 12.25C59.4499 12.25 70.75 23.3356 70.75 37Z" fill="#D9D9D9" stroke="black" stroke-width="0.5"/>
<path d="M55.5 37C55.5 42.8212 51.0012 47.5 45.5 47.5C39.9988 47.5 35.5 42.8212 35.5 37C35.5 31.1788 39.9988 26.5 45.5 26.5C51.0012 26.5 55.5 31.1788 55.5 37Z" fill="#D9D9D9" stroke="black"/>
<path d="M118.5 37C118.5 42.8212 114.001 47.5 108.5 47.5C102.999 47.5 98.5 42.8212 98.5 37C98.5 31.1788 102.999 26.5 108.5 26.5C114.001 26.5 118.5 31.1788 118.5 37Z" fill="#D9D9D9" stroke="black"/>
<path d="M181.5 37C181.5 42.8212 177.001 47.5 171.5 47.5C165.999 47.5 161.5 42.8212 161.5 37C161.5 31.1788 165.999 26.5 171.5 26.5C177.001 26.5 181.5 31.1788 181.5 37Z" fill="#D9D9D9" stroke="black"/>
<path d="M244.5 37C244.5 42.8212 240.001 47.5 234.5 47.5C228.999 47.5 224.5 42.8212 224.5 37C224.5 31.1788 228.999 26.5 234.5 26.5C240.001 26.5 244.5 31.1788 244.5 37Z" fill="#D9D9D9" stroke="black"/>
</svg>
